<svg width="32" height="32" viewBox="0 0 32 32" fill="none" xmlns="http://www.w3.org/2000/svg">
<path fill-rule="evenodd" clip-rule="evenodd" d="M4 7C4.33627 7.30391 4.56766 7.51114 4.57484 7.51219C4.57425 7.51611 4.57364 7.52003 4.57303 7.52395C4.56958 7.54607 4.56613 7.56828 4.56613 7.59105V11.7242V23.5021C4.56613 23.829 4.85822 24.0936 5.21909 24.0936H27.3471C27.708 24.0936 28.0001 23.829 28.0001 23.5021V11.7246V7.59144C28.0005 7.26595 27.7109 7.00224 27.3521 7H4ZM26.695 8.1829H26.473L23.216 11.1331H26.695V8.1829ZM18.0093 11.1331H21.369L24.626 8.1829H21.2663L18.0093 11.1331ZM12.8026 11.1331H16.1627L19.4197 8.1829H16.0596L12.8026 11.1331ZM7.59631 11.1331H10.956L14.213 8.1829H10.8533L7.59631 11.1331ZM5.87249 8.1829V11.0215L9.00627 8.1829H5.87249ZM5.87249 12.316V22.9107H26.6946V12.316C22.1034 12.3156 6.01962 12.316 6.01962 12.316H5.87249Z" fill="black"/>
<path d="M17 15L17 21" stroke="#3D3D3D" stroke-width="1.3" stroke-linecap="round"/>
<path d="M20 18L14 18" stroke="#3D3D3D" stroke-width="1.3" stroke-linecap="round"/>
</svg>
