<svg width="24" height="24" viewBox="0 0 24 24" fill="none" xmlns="http://www.w3.org/2000/svg">
<path d="M19.8128 11.7965C16.4025 11.7965 11.9936 11.7965 8.57949 11.7965H5.52887L7.32092 10.1733C9.84595 7.88659 12.7429 5.26147 15.2638 2.97823L15.643 2.63476C15.8139 2.48021 15.8139 2.22895 15.643 2.07439L13.4811 0.116117C13.3102 -0.0387058 13.0334 -0.0387058 12.8625 0.116117L10.3214 2.41759C8.12448 4.40915 5.11789 7.12992 2.92071 9.12121L2.37819 9.61263C2.20727 9.76719 2.20727 10.0184 2.37819 10.173C2.39423 10.1815 4.536 12.1371 4.55409 12.1397C4.55146 12.1572 4.54825 12.1746 4.54825 12.1926V14.962V22.8537C4.54825 23.0727 4.74397 23.25 4.98577 23.25H19.8125C20.0543 23.25 20.25 23.0727 20.25 22.8537V14.9622V12.1928C20.2503 11.9738 20.0546 11.7965 19.8128 11.7965ZM19.2268 12.5891H19.3756V14.5659H17.0445L19.2268 12.5891ZM15.8069 14.5659H13.5558L15.7381 12.5891H17.9892L15.8069 14.5659ZM12.3185 14.5659H10.067L12.2494 12.5891H14.5008L12.3185 14.5659ZM8.82975 14.5659H6.5786L8.76092 12.5891H11.0121L8.82975 14.5659ZM5.42357 14.4911V12.5891H7.52334L5.42357 14.4911ZM13.1719 0.956811L14.6565 2.3016H11.6873L13.1719 0.956811ZM10.8123 3.09421H13.8988L12.3068 4.53623H9.22031L10.8123 3.09421ZM8.34557 5.32884H11.4318L9.83982 6.77086H6.75361L8.34557 5.32884ZM5.87858 7.56321H8.96509L7.37313 9.00523H4.28662L5.87858 7.56321ZM3.30659 9.89295L3.4116 9.79784H6.4981L4.84985 11.2908L3.30659 9.89295ZM5.42357 22.4574V15.3585H5.52216C5.52216 15.3585 16.299 15.3583 19.3753 15.3585V22.4574H5.42357Z" fill="#C1C1C1"/>
</svg>
